<svg width="40" height="40" viewBox="0 0 40 40" fill="none" xmlns="http://www.w3.org/2000/svg">
<rect width="40" height="40" fill="#1E1E1E"/>
<g clip-path="url(#clip0_0_1)">
<mask id="mask0_0_1" style="mask-type:luminance" maskUnits="userSpaceOnUse" x="-28" y="-611" width="375" height="812">
<path d="M322 -611H-3C-16.8071 -611 -28 -599.807 -28 -586V176C-28 189.807 -16.8071 201 -3 201H322C335.807 201 347 189.807 347 176V-586C347 -599.807 335.807 -611 322 -611Z" fill="white"/>
</mask>
<g mask="url(#mask0_0_1)">
<path d="M322 -611H-3C-16.8071 -611 -28 -599.807 -28 -586V176C-28 189.807 -16.8071 201 -3 201H322C335.807 201 347 189.807 347 176V-586C347 -599.807 335.807 -611 322 -611Z" fill="#FAF9FF"/>
<path d="M20 40C31.0457 40 40 31.0457 40 20C40 8.9543 31.0457 0 20 0C8.9543 0 0 8.9543 0 20C0 31.0457 8.9543 40 20 40Z" fill="#EEEFF4"/>
<path d="M20 30C25.5228 30 30 25.523 30 20C30 14.477 25.5228 10 20 10C14.4772 10 10 14.477 10 20C10 25.523 14.4772 30 20 30Z" stroke="#040402" stroke-width="2" stroke-linecap="round" stroke-linejoin="round"/>
<path d="M17.09 17C17.3251 16.332 17.7891 15.7679 18.3999 15.4089C19.0107 15.0499 19.7289 14.919 20.4271 15.039C21.1254 15.159 21.7588 15.522 22.215 16.064C22.6713 16.606 22.921 17.292 22.92 18C22.92 20 19.92 21 19.92 21" stroke="#040402" stroke-width="2" stroke-linecap="round" stroke-linejoin="round"/>
<path d="M20 25H20.01" stroke="#040402" stroke-width="2" stroke-linecap="round" stroke-linejoin="round"/>
</g>
</g>
<defs>
<clipPath id="clip0_0_1">
<rect width="375" height="812" fill="white" transform="translate(-28 -611)"/>
</clipPath>
</defs>
</svg>
