<svg width="40" height="40" viewBox="0 0 40 40" fill="none" xmlns="http://www.w3.org/2000/svg">
<rect width="40" height="40" fill="#1E1E1E"/>
<g clip-path="url(#clip0_0_1)">
<mask id="mask0_0_1" style="mask-type:luminance" maskUnits="userSpaceOnUse" x="-32" y="-296" width="375" height="812">
<path d="M318 -296H-7C-20.8071 -296 -32 -284.807 -32 -271V491C-32 504.807 -20.8071 516 -7 516H318C331.807 516 343 504.807 343 491V-271C343 -284.807 331.807 -296 318 -296Z" fill="white"/>
</mask>
<g mask="url(#mask0_0_1)">
<path d="M318 -296H-7C-20.8071 -296 -32 -284.807 -32 -271V491C-32 504.807 -20.8071 516 -7 516H318C331.807 516 343 504.807 343 491V-271C343 -284.807 331.807 -296 318 -296Z" fill="#FAF9FF"/>
<path d="M20 40C31.0457 40 40 31.0457 40 20C40 8.9543 31.0457 0 20 0C8.9543 0 0 8.9543 0 20C0 31.0457 8.9543 40 20 40Z" fill="#EEEFF4"/>
<path d="M29 12H11C9.8954 12 9 12.895 9 14V26C9 27.105 9.8954 28 11 28H29C30.1046 28 31 27.105 31 26V14C31 12.895 30.1046 12 29 12Z" stroke="#040402" stroke-width="2" stroke-linecap="round" stroke-linejoin="round"/>
<path d="M9 18H31" stroke="#040402" stroke-width="2" stroke-linecap="round" stroke-linejoin="round"/>
</g>
</g>
<defs>
<clipPath id="clip0_0_1">
<rect width="375" height="812" fill="white" transform="translate(-32 -296)"/>
</clipPath>
</defs>
</svg>
